<svg class="rich-terminal" viewBox="0 0 1360 782.0" xmlns="http://www.w3.org/2000/svg">
    <!-- Generated with Rich https://www.textualize.io -->
    <style>

    @font-face {
        font-family: "Fira Code";
        src: local("FiraCode-Regular"),
                url("https://cdnjs.cloudflare.com/ajax/libs/firacode/6.2.0/woff2/FiraCode-Regular.woff2") format("woff2"),
                url("https://cdnjs.cloudflare.com/ajax/libs/firacode/6.2.0/woff/FiraCode-Regular.woff") format("woff");
        font-style: normal;
        font-weight: 400;
    }
    @font-face {
        font-family: "Fira Code";
        src: local("FiraCode-Bold"),
                url("https://cdnjs.cloudflare.com/ajax/libs/firacode/6.2.0/woff2/FiraCode-Bold.woff2") format("woff2"),
                url("https://cdnjs.cloudflare.com/ajax/libs/firacode/6.2.0/woff/FiraCode-Bold.woff") format("woff");
        font-style: bold;
        font-weight: 700;
    }

    .terminal-372535407-matrix {
        font-family: Fira Code, monospace;
        font-size: 20px;
        line-height: 24.4px;
        font-variant-east-asian: full-width;
    }

    .terminal-372535407-title {
        font-size: 18px;
        font-weight: bold;
        font-family: arial;
    }

    .terminal-372535407-r1 { fill: #c5c8c6 }
.terminal-372535407-r2 { fill: #e0e0e0 }
.terminal-372535407-r3 { fill: #ddedf9;font-weight: bold }
.terminal-372535407-r4 { fill: #797979 }
.terminal-372535407-r5 { fill: #4f4f4f }
.terminal-372535407-r6 { fill: #0178d4 }
.terminal-372535407-r7 { fill: #e0e0e0;font-weight: bold }
.terminal-372535407-r8 { fill: #ffa62b;font-weight: bold }
.terminal-372535407-r9 { fill: #495259 }
    </style>

    <defs>
    <clipPath id="terminal-372535407-clip-terminal">
      <rect x="0" y="0" width="1341.0" height="731.0" />
    </clipPath>
    <clipPath id="terminal-372535407-line-0">
    <rect x="0" y="1.5" width="1342" height="24.65"/>
            </clipPath>
<clipPath id="terminal-372535407-line-1">
    <rect x="0" y="25.9" width="1342" height="24.65"/>
            </clipPath>
<clipPath id="terminal-372535407-line-2">
    <rect x="0" y="50.3" width="1342" height="24.65"/>
            </clipPath>
<clipPath id="terminal-372535407-line-3">
    <rect x="0" y="74.7" width="1342" height="24.65"/>
            </clipPath>
<clipPath id="terminal-372535407-line-4">
    <rect x="0" y="99.1" width="1342" height="24.65"/>
            </clipPath>
<clipPath id="terminal-372535407-line-5">
    <rect x="0" y="123.5" width="1342" height="24.65"/>
            </clipPath>
<clipPath id="terminal-372535407-line-6">
    <rect x="0" y="147.9" width="1342" height="24.65"/>
            </clipPath>
<clipPath id="terminal-372535407-line-7">
    <rect x="0" y="172.3" width="1342" height="24.65"/>
            </clipPath>
<clipPath id="terminal-372535407-line-8">
    <rect x="0" y="196.7" width="1342" height="24.65"/>
            </clipPath>
<clipPath id="terminal-372535407-line-9">
    <rect x="0" y="221.1" width="1342" height="24.65"/>
            </clipPath>
<clipPath id="terminal-372535407-line-10">
    <rect x="0" y="245.5" width="1342" height="24.65"/>
            </clipPath>
<clipPath id="terminal-372535407-line-11">
    <rect x="0" y="269.9" width="1342" height="24.65"/>
            </clipPath>
<clipPath id="terminal-372535407-line-12">
    <rect x="0" y="294.3" width="1342" height="24.65"/>
            </clipPath>
<clipPath id="terminal-372535407-line-13">
    <rect x="0" y="318.7" width="1342" height="24.65"/>
            </clipPath>
<clipPath id="terminal-372535407-line-14">
    <rect x="0" y="343.1" width="1342" height="24.65"/>
            </clipPath>
<clipPath id="terminal-372535407-line-15">
    <rect x="0" y="367.5" width="1342" height="24.65"/>
            </clipPath>
<clipPath id="terminal-372535407-line-16">
    <rect x="0" y="391.9" width="1342" height="24.65"/>
            </clipPath>
<clipPath id="terminal-372535407-line-17">
    <rect x="0" y="416.3" width="1342" height="24.65"/>
            </clipPath>
<clipPath id="terminal-372535407-line-18">
    <rect x="0" y="440.7" width="1342" height="24.65"/>
            </clipPath>
<clipPath id="terminal-372535407-line-19">
    <rect x="0" y="465.1" width="1342" height="24.65"/>
            </clipPath>
<clipPath id="terminal-372535407-line-20">
    <rect x="0" y="489.5" width="1342" height="24.65"/>
            </clipPath>
<clipPath id="terminal-372535407-line-21">
    <rect x="0" y="513.9" width="1342" height="24.65"/>
            </clipPath>
<clipPath id="terminal-372535407-line-22">
    <rect x="0" y="538.3" width="1342" height="24.65"/>
            </clipPath>
<clipPath id="terminal-372535407-line-23">
    <rect x="0" y="562.7" width="1342" height="24.65"/>
            </clipPath>
<clipPath id="terminal-372535407-line-24">
    <rect x="0" y="587.1" width="1342" height="24.65"/>
            </clipPath>
<clipPath id="terminal-372535407-line-25">
    <rect x="0" y="611.5" width="1342" height="24.65"/>
            </clipPath>
<clipPath id="terminal-372535407-line-26">
    <rect x="0" y="635.9" width="1342" height="24.65"/>
            </clipPath>
<clipPath id="terminal-372535407-line-27">
    <rect x="0" y="660.3" width="1342" height="24.65"/>
            </clipPath>
<clipPath id="terminal-372535407-line-28">
    <rect x="0" y="684.7" width="1342" height="24.65"/>
            </clipPath>
    </defs>

    <rect fill="#292929" stroke="rgba(255,255,255,0.35)" stroke-width="1" x="1" y="1" width="1358" height="780" rx="8"/><text class="terminal-372535407-title" fill="#c5c8c6" text-anchor="middle" x="679" y="27">mazu&#160;ui&#160;—&#160;checkpoints</text>
            <g transform="translate(26,22)">
            <circle cx="0" cy="0" r="7" fill="#ff5f57"/>
            <circle cx="22" cy="0" r="7" fill="#febc2e"/>
            <circle cx="44" cy="0" r="7" fill="#28c840"/>
            </g>
        
    <g transform="translate(9, 41)" clip-path="url(#terminal-372535407-clip-terminal)">
    <rect fill="#242f38" x="0" y="1.5" width="12.2" height="24.65" shape-rendering="crispEdges"/><rect fill="#242f38" x="12.2" y="1.5" width="12.2" height="24.65" shape-rendering="crispEdges"/><rect fill="#242f38" x="24.4" y="1.5" width="61" height="24.65" shape-rendering="crispEdges"/><rect fill="#242f38" x="85.4" y="1.5" width="12.2" height="24.65" shape-rendering="crispEdges"/><rect fill="#242f38" x="97.6" y="1.5" width="536.8" height="24.65" shape-rendering="crispEdges"/><rect fill="#242f38" x="634.4" y="1.5" width="48.8" height="24.65" shape-rendering="crispEdges"/><rect fill="#242f38" x="683.2" y="1.5" width="536.8" height="24.65" shape-rendering="crispEdges"/><rect fill="#242f38" x="1220" y="1.5" width="12.2" height="24.65" shape-rendering="crispEdges"/><rect fill="#242f38" x="1232.2" y="1.5" width="0" height="24.65" shape-rendering="crispEdges"/><rect fill="#242f38" x="1232.2" y="1.5" width="97.6" height="24.65" shape-rendering="crispEdges"/><rect fill="#242f38" x="1329.8" y="1.5" width="12.2" height="24.65" shape-rendering="crispEdges"/><rect fill="#0178d4" x="0" y="25.9" width="12.2" height="24.65" shape-rendering="crispEdges"/><rect fill="#0178d4" x="12.2" y="25.9" width="134.2" height="24.65" shape-rendering="crispEdges"/><rect fill="#0178d4" x="146.4" y="25.9" width="12.2" height="24.65" shape-rendering="crispEdges"/><rect fill="#121212" x="158.6" y="25.9" width="12.2" height="24.65" shape-rendering="crispEdges"/><rect fill="#121212" x="170.8" y="25.9" width="73.2" height="24.65" shape-rendering="crispEdges"/><rect fill="#121212" x="244" y="25.9" width="12.2" height="24.65" shape-rendering="crispEdges"/><rect fill="#121212" x="256.2" y="25.9" width="12.2" height="24.65" shape-rendering="crispEdges"/><rect fill="#121212" x="268.4" y="25.9" width="122" height="24.65" shape-rendering="crispEdges"/><rect fill="#121212" x="390.4" y="25.9" width="12.2" height="24.65" shape-rendering="crispEdges"/><rect fill="#121212" x="402.6" y="25.9" width="939.4" height="24.65" shape-rendering="crispEdges"/><rect fill="#121212" x="0" y="50.3" width="12.2" height="24.65" shape-rendering="crispEdges"/><rect fill="#121212" x="12.2" y="50.3" width="134.2" height="24.65" shape-rendering="crispEdges"/><rect fill="#121212" x="146.4" y="50.3" width="12.2" height="24.65" shape-rendering="crispEdges"/><rect fill="#121212" x="158.6" y="50.3" width="1183.4" height="24.65" shape-rendering="crispEdges"/><rect fill="#242f38" x="0" y="74.7" width="134.2" height="24.65" shape-rendering="crispEdges"/><rect fill="#242f38" x="134.2" y="74.7" width="414.8" height="24.65" shape-rendering="crispEdges"/><rect fill="#242f38" x="549" y="74.7" width="280.6" height="24.65" shape-rendering="crispEdges"/><rect fill="#242f38" x="829.6" y="74.7" width="183" height="24.65" shape-rendering="crispEdges"/><rect fill="#242f38" x="1012.6" y="74.7" width="329.4" height="24.65" shape-rendering="crispEdges"/><rect fill="#153854" x="0" y="99.1" width="134.2" height="24.65" shape-rendering="crispEdges"/><rect fill="#153854" x="134.2" y="99.1" width="414.8" height="24.65" shape-rendering="crispEdges"/><rect fill="#153854" x="549" y="99.1" width="280.6" height="24.65" shape-rendering="crispEdges"/><rect fill="#153854" x="829.6" y="99.1" width="183" height="24.65" shape-rendering="crispEdges"/><rect fill="#153854" x="1012.6" y="99.1" width="329.4" height="24.65" shape-rendering="crispEdges"/><rect fill="#1e1e1e" x="0" y="123.5" width="134.2" height="24.65" shape-rendering="crispEdges"/><rect fill="#1e1e1e" x="134.2" y="123.5" width="414.8" height="24.65" shape-rendering="crispEdges"/><rect fill="#1e1e1e" x="549" y="123.5" width="280.6" height="24.65" shape-rendering="crispEdges"/><rect fill="#1e1e1e" x="829.6" y="123.5" width="183" height="24.65" shape-rendering="crispEdges"/><rect fill="#1e1e1e" x="1012.6" y="123.5" width="329.4" height="24.65" shape-rendering="crispEdges"/><rect fill="#1e1e1e" x="0" y="147.9" width="134.2" height="24.65" shape-rendering="crispEdges"/><rect fill="#1e1e1e" x="134.2" y="147.9" width="414.8" height="24.65" shape-rendering="crispEdges"/><rect fill="#1e1e1e" x="549" y="147.9" width="280.6" height="24.65" shape-rendering="crispEdges"/><rect fill="#1e1e1e" x="829.6" y="147.9" width="183" height="24.65" shape-rendering="crispEdges"/><rect fill="#1e1e1e" x="1012.6" y="147.9" width="329.4" height="24.65" shape-rendering="crispEdges"/><rect fill="#1e1e1e" x="0" y="172.3" width="1342" height="24.65" shape-rendering="crispEdges"/><rect fill="#1e1e1e" x="0" y="196.7" width="1342" height="24.65" shape-rendering="crispEdges"/><rect fill="#1e1e1e" x="0" y="221.1" width="1342" height="24.65" shape-rendering="crispEdges"/><rect fill="#1e1e1e" x="0" y="245.5" width="1342" height="24.65" shape-rendering="crispEdges"/><rect fill="#1e1e1e" x="0" y="269.9" width="1342" height="24.65" shape-rendering="crispEdges"/><rect fill="#1e1e1e" x="0" y="294.3" width="1342" height="24.65" shape-rendering="crispEdges"/><rect fill="#1e1e1e" x="0" y="318.7" width="1342" height="24.65" shape-rendering="crispEdges"/><rect fill="#1e1e1e" x="0" y="343.1" width="1342" height="24.65" shape-rendering="crispEdges"/><rect fill="#1e1e1e" x="0" y="367.5" width="1342" height="24.65" shape-rendering="crispEdges"/><rect fill="#1e1e1e" x="0" y="391.9" width="1342" height="24.65" shape-rendering="crispEdges"/><rect fill="#1e1e1e" x="0" y="416.3" width="1342" height="24.65" shape-rendering="crispEdges"/><rect fill="#1e1e1e" x="0" y="440.7" width="1342" height="24.65" shape-rendering="crispEdges"/><rect fill="#1e1e1e" x="0" y="465.1" width="1342" height="24.65" shape-rendering="crispEdges"/><rect fill="#1e1e1e" x="0" y="489.5" width="1342" height="24.65" shape-rendering="crispEdges"/><rect fill="#1e1e1e" x="0" y="513.9" width="1342" height="24.65" shape-rendering="crispEdges"/><rect fill="#1e1e1e" x="0" y="538.3" width="1342" height="24.65" shape-rendering="crispEdges"/><rect fill="#1e1e1e" x="0" y="562.7" width="1342" height="24.65" shape-rendering="crispEdges"/><rect fill="#1e1e1e" x="0" y="587.1" width="1342" height="24.65" shape-rendering="crispEdges"/><rect fill="#1e1e1e" x="0" y="611.5" width="1342" height="24.65" shape-rendering="crispEdges"/><rect fill="#1e1e1e" x="0" y="635.9" width="1342" height="24.65" shape-rendering="crispEdges"/><rect fill="#1e1e1e" x="0" y="660.3" width="1342" height="24.65" shape-rendering="crispEdges"/><rect fill="#1e1e1e" x="0" y="684.7" width="1342" height="24.65" shape-rendering="crispEdges"/><rect fill="#242f38" x="0" y="709.1" width="36.6" height="24.65" shape-rendering="crispEdges"/><rect fill="#242f38" x="36.6" y="709.1" width="61" height="24.65" shape-rendering="crispEdges"/><rect fill="#242f38" x="97.6" y="709.1" width="36.6" height="24.65" shape-rendering="crispEdges"/><rect fill="#242f38" x="134.2" y="709.1" width="109.8" height="24.65" shape-rendering="crispEdges"/><rect fill="#242f38" x="244" y="709.1" width="36.6" height="24.65" shape-rendering="crispEdges"/><rect fill="#242f38" x="280.6" y="709.1" width="122" height="24.65" shape-rendering="crispEdges"/><rect fill="#242f38" x="402.6" y="709.1" width="793" height="24.65" shape-rendering="crispEdges"/><rect fill="#242f38" x="1195.6" y="709.1" width="12.2" height="24.65" shape-rendering="crispEdges"/><rect fill="#242f38" x="1207.8" y="709.1" width="24.4" height="24.65" shape-rendering="crispEdges"/><rect fill="#242f38" x="1232.2" y="709.1" width="97.6" height="24.65" shape-rendering="crispEdges"/><rect fill="#242f38" x="1329.8" y="709.1" width="12.2" height="24.65" shape-rendering="crispEdges"/>
    <g class="terminal-372535407-matrix">
    <text class="terminal-372535407-r2" x="12.2" y="20" textLength="12.2" clip-path="url(#terminal-372535407-line-0)">⭘</text><text class="terminal-372535407-r2" x="634.4" y="20" textLength="48.8" clip-path="url(#terminal-372535407-line-0)">Mazu</text><text class="terminal-372535407-r1" x="1342" y="20" textLength="12.2" clip-path="url(#terminal-372535407-line-0)">
</text><text class="terminal-372535407-r3" x="12.2" y="44.4" textLength="134.2" clip-path="url(#terminal-372535407-line-1)">Checkpoints</text><text class="terminal-372535407-r4" x="170.8" y="44.4" textLength="73.2" clip-path="url(#terminal-372535407-line-1)">Memory</text><text class="terminal-372535407-r4" x="268.4" y="44.4" textLength="122" clip-path="url(#terminal-372535407-line-1)">Action&#160;Log</text><text class="terminal-372535407-r1" x="1342" y="44.4" textLength="12.2" clip-path="url(#terminal-372535407-line-1)">
</text><text class="terminal-372535407-r5" x="0" y="68.8" textLength="12.2" clip-path="url(#terminal-372535407-line-2)">╸</text><text class="terminal-372535407-r6" x="12.2" y="68.8" textLength="134.2" clip-path="url(#terminal-372535407-line-2)">━━━━━━━━━━━</text><text class="terminal-372535407-r5" x="146.4" y="68.8" textLength="12.2" clip-path="url(#terminal-372535407-line-2)">╺</text><text class="terminal-372535407-r5" x="158.6" y="68.8" textLength="1183.4" clip-path="url(#terminal-372535407-line-2)">━━━━━━━━━━━━━━━━━━━━━━━━━━━━━━━━━━━━━━━━━━━━━━━━━━━━━━━━━━━━━━━━━━━━━━━━━━━━━━━━━━━━━━━━━━━━━━━━━</text><text class="terminal-372535407-r1" x="1342" y="68.8" textLength="12.2" clip-path="url(#terminal-372535407-line-2)">
</text><text class="terminal-372535407-r7" x="0" y="93.2" textLength="134.2" clip-path="url(#terminal-372535407-line-3)">&#160;ID&#160;&#160;&#160;&#160;&#160;&#160;&#160;&#160;</text><text class="terminal-372535407-r7" x="134.2" y="93.2" textLength="414.8" clip-path="url(#terminal-372535407-line-3)">&#160;Created&#160;&#160;&#160;&#160;&#160;&#160;&#160;&#160;&#160;&#160;&#160;&#160;&#160;&#160;&#160;&#160;&#160;&#160;&#160;&#160;&#160;&#160;&#160;&#160;&#160;&#160;</text><text class="terminal-372535407-r7" x="549" y="93.2" textLength="280.6" clip-path="url(#terminal-372535407-line-3)">&#160;Trigger&#160;&#160;&#160;&#160;&#160;&#160;&#160;&#160;&#160;&#160;&#160;&#160;&#160;&#160;&#160;</text><text class="terminal-372535407-r7" x="829.6" y="93.2" textLength="183" clip-path="url(#terminal-372535407-line-3)">&#160;Files&#160;changed&#160;</text><text class="terminal-372535407-r1" x="1342" y="93.2" textLength="12.2" clip-path="url(#terminal-372535407-line-3)">
</text><text class="terminal-372535407-r2" x="0" y="117.6" textLength="134.2" clip-path="url(#terminal-372535407-line-4)">&#160;cp_000003&#160;</text><text class="terminal-372535407-r2" x="134.2" y="117.6" textLength="414.8" clip-path="url(#terminal-372535407-line-4)">&#160;2026-07-14T20:26:13.072130+00:00&#160;</text><text class="terminal-372535407-r2" x="549" y="117.6" textLength="280.6" clip-path="url(#terminal-372535407-line-4)">&#160;auto_after_tool_round&#160;</text><text class="terminal-372535407-r2" x="829.6" y="117.6" textLength="183" clip-path="url(#terminal-372535407-line-4)">&#160;app.py&#160;&#160;&#160;&#160;&#160;&#160;&#160;&#160;</text><text class="terminal-372535407-r1" x="1342" y="117.6" textLength="12.2" clip-path="url(#terminal-372535407-line-4)">
</text><text class="terminal-372535407-r2" x="0" y="142" textLength="134.2" clip-path="url(#terminal-372535407-line-5)">&#160;cp_000002&#160;</text><text class="terminal-372535407-r2" x="134.2" y="142" textLength="414.8" clip-path="url(#terminal-372535407-line-5)">&#160;2026-07-14T20:26:12.808134+00:00&#160;</text><text class="terminal-372535407-r2" x="549" y="142" textLength="280.6" clip-path="url(#terminal-372535407-line-5)">&#160;auto_after_tool_round&#160;</text><text class="terminal-372535407-r2" x="829.6" y="142" textLength="183" clip-path="url(#terminal-372535407-line-5)">&#160;app.py&#160;&#160;&#160;&#160;&#160;&#160;&#160;&#160;</text><text class="terminal-372535407-r1" x="1342" y="142" textLength="12.2" clip-path="url(#terminal-372535407-line-5)">
</text><text class="terminal-372535407-r2" x="0" y="166.4" textLength="134.2" clip-path="url(#terminal-372535407-line-6)">&#160;cp_000001&#160;</text><text class="terminal-372535407-r2" x="134.2" y="166.4" textLength="414.8" clip-path="url(#terminal-372535407-line-6)">&#160;2026-07-14T20:26:12.522488+00:00&#160;</text><text class="terminal-372535407-r2" x="549" y="166.4" textLength="280.6" clip-path="url(#terminal-372535407-line-6)">&#160;manual&#160;&#160;&#160;&#160;&#160;&#160;&#160;&#160;&#160;&#160;&#160;&#160;&#160;&#160;&#160;&#160;</text><text class="terminal-372535407-r2" x="829.6" y="166.4" textLength="183" clip-path="url(#terminal-372535407-line-6)">&#160;-&#160;&#160;&#160;&#160;&#160;&#160;&#160;&#160;&#160;&#160;&#160;&#160;&#160;</text><text class="terminal-372535407-r1" x="1342" y="166.4" textLength="12.2" clip-path="url(#terminal-372535407-line-6)">
</text><text class="terminal-372535407-r1" x="1342" y="190.8" textLength="12.2" clip-path="url(#terminal-372535407-line-7)">
</text><text class="terminal-372535407-r1" x="1342" y="215.2" textLength="12.2" clip-path="url(#terminal-372535407-line-8)">
</text><text class="terminal-372535407-r1" x="1342" y="239.6" textLength="12.2" clip-path="url(#terminal-372535407-line-9)">
</text><text class="terminal-372535407-r1" x="1342" y="264" textLength="12.2" clip-path="url(#terminal-372535407-line-10)">
</text><text class="terminal-372535407-r1" x="1342" y="288.4" textLength="12.2" clip-path="url(#terminal-372535407-line-11)">
</text><text class="terminal-372535407-r1" x="1342" y="312.8" textLength="12.2" clip-path="url(#terminal-372535407-line-12)">
</text><text class="terminal-372535407-r1" x="1342" y="337.2" textLength="12.2" clip-path="url(#terminal-372535407-line-13)">
</text><text class="terminal-372535407-r1" x="1342" y="361.6" textLength="12.2" clip-path="url(#terminal-372535407-line-14)">
</text><text class="terminal-372535407-r1" x="1342" y="386" textLength="12.2" clip-path="url(#terminal-372535407-line-15)">
</text><text class="terminal-372535407-r1" x="1342" y="410.4" textLength="12.2" clip-path="url(#terminal-372535407-line-16)">
</text><text class="terminal-372535407-r1" x="1342" y="434.8" textLength="12.2" clip-path="url(#terminal-372535407-line-17)">
</text><text class="terminal-372535407-r1" x="1342" y="459.2" textLength="12.2" clip-path="url(#terminal-372535407-line-18)">
</text><text class="terminal-372535407-r1" x="1342" y="483.6" textLength="12.2" clip-path="url(#terminal-372535407-line-19)">
</text><text class="terminal-372535407-r1" x="1342" y="508" textLength="12.2" clip-path="url(#terminal-372535407-line-20)">
</text><text class="terminal-372535407-r1" x="1342" y="532.4" textLength="12.2" clip-path="url(#terminal-372535407-line-21)">
</text><text class="terminal-372535407-r1" x="1342" y="556.8" textLength="12.2" clip-path="url(#terminal-372535407-line-22)">
</text><text class="terminal-372535407-r1" x="1342" y="581.2" textLength="12.2" clip-path="url(#terminal-372535407-line-23)">
</text><text class="terminal-372535407-r1" x="1342" y="605.6" textLength="12.2" clip-path="url(#terminal-372535407-line-24)">
</text><text class="terminal-372535407-r1" x="1342" y="630" textLength="12.2" clip-path="url(#terminal-372535407-line-25)">
</text><text class="terminal-372535407-r1" x="1342" y="654.4" textLength="12.2" clip-path="url(#terminal-372535407-line-26)">
</text><text class="terminal-372535407-r1" x="1342" y="678.8" textLength="12.2" clip-path="url(#terminal-372535407-line-27)">
</text><text class="terminal-372535407-r1" x="1342" y="703.2" textLength="12.2" clip-path="url(#terminal-372535407-line-28)">
</text><text class="terminal-372535407-r8" x="0" y="727.6" textLength="36.6" clip-path="url(#terminal-372535407-line-29)">&#160;q&#160;</text><text class="terminal-372535407-r2" x="36.6" y="727.6" textLength="61" clip-path="url(#terminal-372535407-line-29)">Quit&#160;</text><text class="terminal-372535407-r8" x="97.6" y="727.6" textLength="36.6" clip-path="url(#terminal-372535407-line-29)">&#160;r&#160;</text><text class="terminal-372535407-r2" x="134.2" y="727.6" textLength="109.8" clip-path="url(#terminal-372535407-line-29)">Rollback&#160;</text><text class="terminal-372535407-r8" x="244" y="727.6" textLength="36.6" clip-path="url(#terminal-372535407-line-29)">&#160;p&#160;</text><text class="terminal-372535407-r2" x="280.6" y="727.6" textLength="122" clip-path="url(#terminal-372535407-line-29)">Pin/Unpin&#160;</text><text class="terminal-372535407-r9" x="1195.6" y="727.6" textLength="12.2" clip-path="url(#terminal-372535407-line-29)">▏</text><text class="terminal-372535407-r8" x="1207.8" y="727.6" textLength="24.4" clip-path="url(#terminal-372535407-line-29)">^p</text><text class="terminal-372535407-r2" x="1232.2" y="727.6" textLength="97.6" clip-path="url(#terminal-372535407-line-29)">&#160;palette</text>
    </g>
    </g>
</svg>
